<?xml version="1.0" encoding="utf-8"?>
<!-- Generator: Adobe Illustrator 26.3.1, SVG Export Plug-In . SVG Version: 6.00 Build 0)  -->
<svg version="1.1" id="Layer_2_00000056399981187951003550000013636322470543254205_"
	 xmlns="http://www.w3.org/2000/svg" xmlns:xlink="http://www.w3.org/1999/xlink" x="0px" y="0px" viewBox="0 0 800 800"
	 style="enable-background:new 0 0 800 800;" xml:space="preserve">
<style type="text/css">
	.st0{fill:#FFFFFF;}
</style>
<path class="st0" d="M421.5,792.7c-22.5,0-45-1.8-67.2-5.5C128,750.1-25.4,536.7,11.4,310.4C31.5,185,108.1,75.9,219.2,14.4
	c18.9-10.6,42.2-9.1,59.7,3.7c17.9,12.2,26.8,33.8,22.9,55.1L272,70.9l28.1,5C267.3,249.8,366.5,421.5,533.5,480l0,0
	c62.2,21.6,129.2,25.8,193.6,12.1c30.2-5.9,59.5,13.8,65.5,44c2.3,12,0.7,24.4-4.7,35.3C716,707.2,575.1,792.3,421.5,792.7z
	 M243.9,66.1C71.8,163.6,11.4,382.2,109,554.3c6.3,11.1,13.2,21.9,20.6,32.2c115,160.8,338.6,197.9,499.4,82.9
	c44.2-31.6,80.7-73,106.6-120.8c-73.5,14.8-149.6,9.7-220.6-14.6C321.6,466.1,206.5,267.5,243.9,66.1z"/>
</svg>
